<svg width="38" height="37" viewBox="0 0 38 37" fill="none" xmlns="http://www.w3.org/2000/svg">
<ellipse cx="19" cy="18.5" rx="19" ry="18.5" fill="#676EEC" fill-opacity="0.8"/>
<g clip-path="url(#clip0)">
<path d="M31.9077 18.2041C31.7108 17.9177 26.9795 11.2082 19.5002 11.2082C13.0824 11.2082 7.36352 17.8791 7.12289 18.1635C6.95936 18.3573 6.95936 18.6417 7.12289 18.8364C7.36352 19.1208 13.0824 25.7918 19.5002 25.7918C25.918 25.7918 31.6368 19.1208 31.8774 18.8364C32.0285 18.6573 32.042 18.3979 31.9077 18.2041ZM19.5002 24.7501C14.3553 24.7501 9.46355 19.8438 8.22086 18.5C9.4615 17.1552 14.3481 12.2499 19.5002 12.2499C25.5201 12.2499 29.7691 17.149 30.8066 18.4719C29.6086 19.7729 24.6888 24.7501 19.5002 24.7501Z" fill="white"/>
<path d="M19.5 14.3333C17.202 14.3333 15.3333 16.202 15.3333 18.5C15.3333 20.7979 17.202 22.6667 19.5 22.6667C21.7979 22.6667 23.6667 20.7979 23.6667 18.5C23.6667 16.202 21.7979 14.3333 19.5 14.3333ZM19.5 21.6251C17.777 21.6251 16.3749 20.223 16.3749 18.5C16.3749 16.7771 17.777 15.375 19.5 15.375C21.2229 15.375 22.625 16.7771 22.625 18.5C22.625 20.223 21.2229 21.6251 19.5 21.6251Z" fill="white"/>
</g>
<defs>
<clipPath id="clip0">
<rect width="25" height="25" fill="white" transform="translate(7 6)"/>
</clipPath>
</defs>
</svg>
