<svg width="38" height="37" viewBox="0 0 38 37" fill="none" xmlns="http://www.w3.org/2000/svg">
<ellipse cx="19" cy="18.5" rx="19" ry="18.5" fill="#FCCA94"/>
<path d="M31.2722 9.44355C31.2706 9.44355 31.2691 9.44336 31.2676 9.44336H24.627V8.71094C24.627 7.49939 23.6412 6.51367 22.4297 6.51367H16.5703C15.3588 6.51367 14.373 7.49939 14.373 8.71094V9.44336H7.73242C7.32463 9.44336 7 9.77753 7 10.1758V26.2891C7 27.5006 7.98572 28.4863 9.19727 28.4863H29.8027C31.0143 28.4863 32 27.5006 32 26.2891V10.1912C32 10.1903 32 10.1893 32 10.1884C31.972 9.70734 31.6761 9.44622 31.2722 9.44355ZM15.8379 8.71094C15.8379 8.30715 16.1665 7.97852 16.5703 7.97852H22.4297C22.8335 7.97852 23.1621 8.30715 23.1621 8.71094V9.44336H15.8379V8.71094ZM30.2513 10.9082L27.9768 17.7316C27.8771 18.0312 27.5978 18.2324 27.2822 18.2324H23.1621V17.5C23.1621 17.0955 22.8342 16.7676 22.4297 16.7676H16.5703C16.1658 16.7676 15.8379 17.0955 15.8379 17.5V18.2324H11.7178C11.4022 18.2324 11.1229 18.0312 11.0232 17.7316L8.74866 10.9082H30.2513ZM21.6973 18.2324V19.6973H17.3027V18.2324H21.6973ZM30.5352 26.2891C30.5352 26.6928 30.2065 27.0215 29.8027 27.0215H9.19727C8.79348 27.0215 8.46484 26.6928 8.46484 26.2891V14.6891L9.63348 18.1948C9.93293 19.0936 10.7706 19.6973 11.7178 19.6973H15.8379V20.4297C15.8379 20.8342 16.1658 21.1621 16.5703 21.1621H22.4297C22.8342 21.1621 23.1621 20.8342 23.1621 20.4297V19.6973H27.2822C28.2294 19.6973 29.0671 19.0936 29.3665 18.1948L30.5352 14.6891V26.2891Z" fill="white"/>
</svg>
