<svg width="38" height="37" viewBox="0 0 38 37" fill="none" xmlns="http://www.w3.org/2000/svg">
<ellipse cx="19" cy="18.5" rx="19" ry="18.5" fill="#FF9E66"/>
<path d="M11.2969 28.2656C10.8654 28.2656 10.5156 27.9158 10.5156 27.4844V9.22266C10.5156 7.44565 11.9613 6 13.7383 6H27.7031C28.1346 6 28.4844 6.3498 28.4844 6.78125V24.75C28.4844 25.1814 28.1346 25.5312 27.7031 25.5312C27.2716 25.5312 26.9219 25.1814 26.9219 24.75V7.5625H13.7383C12.8229 7.5625 12.0781 8.30723 12.0781 9.22266V27.4844C12.0781 27.9158 11.7284 28.2656 11.2969 28.2656Z" fill="white"/>
<path d="M27.7031 31H14.0312C12.0927 31 10.5156 29.4229 10.5156 27.4844C10.5156 25.5458 12.0927 23.9688 14.0312 23.9688H27.7031C28.1346 23.9688 28.4844 24.3186 28.4844 24.75C28.4844 25.1814 28.1346 25.5312 27.7031 25.5312H14.0312C12.9543 25.5312 12.0781 26.4074 12.0781 27.4844C12.0781 28.5613 12.9543 29.4375 14.0312 29.4375H27.7031C28.1346 29.4375 28.4844 29.7873 28.4844 30.2188C28.4844 30.6502 28.1346 31 27.7031 31Z" fill="white"/>
<path d="M27.7031 28.2656H14.0312C13.5998 28.2656 13.25 27.9158 13.25 27.4844C13.25 27.0529 13.5998 26.7031 14.0312 26.7031H27.7031C28.1346 26.7031 28.4844 27.0529 28.4844 27.4844C28.4844 27.9158 28.1346 28.2656 27.7031 28.2656Z" fill="white"/>
<path d="M14.8125 25.5312C14.381 25.5312 14.0312 25.1814 14.0312 24.75V6.78125C14.0312 6.3498 14.381 6 14.8125 6C15.244 6 15.5938 6.3498 15.5938 6.78125V24.75C15.5938 25.1814 15.244 25.5312 14.8125 25.5312Z" fill="white"/>
</svg>
