<svg width="38" height="37" viewBox="0 0 38 37" fill="none" xmlns="http://www.w3.org/2000/svg">
<ellipse cx="19" cy="18.5" rx="19" ry="18.5" fill="#FCA26E"/>
<path d="M31.5154 11.0242C31.5138 11.0242 31.5121 11.0242 31.5106 11.0242H29.8678V10.4621C29.8766 10.2396 29.7327 10.0397 29.5189 9.97751C28.3784 9.67864 27.204 9.52878 26.025 9.53169C24.0866 9.53169 21.4456 9.96782 19.4927 11.9546C17.5544 9.94844 14.894 9.53169 12.9605 9.53169C11.7814 9.52878 10.607 9.67864 9.46656 9.97751C9.25274 10.0397 9.10881 10.2396 9.11766 10.4621V11.0194H7.48459C7.21698 11.0194 7 11.2364 7 11.504V26.9818C7 27.2494 7.21698 27.4664 7.48459 27.4664C7.56782 27.4661 7.64959 27.4444 7.72204 27.4034C7.7705 27.3791 12.6164 24.7284 19.3813 26.4342H19.454H19.4976C19.5362 26.4388 19.5752 26.4388 19.6139 26.4342C26.3981 24.7139 31.244 27.3598 31.2731 27.4034C31.423 27.4899 31.6078 27.4899 31.7577 27.4034C31.9067 27.3174 31.999 27.1587 32 26.9866V11.5088C32 11.2412 31.7831 11.0242 31.5154 11.0242ZM7.96918 26.2113V11.9934H9.12735V24.1469C9.12432 24.4145 9.33881 24.6339 9.60643 24.637C9.6326 24.6373 9.65876 24.6354 9.68463 24.6315C10.6871 24.4784 11.6993 24.3975 12.7133 24.3892C14.118 24.3649 15.5169 24.5761 16.8517 25.0143C13.8373 24.6498 10.7796 25.0618 7.96918 26.2113ZM12.7133 23.4249C11.8319 23.4269 10.9515 23.4835 10.0771 23.5945V10.8449C11.0206 10.6347 11.9841 10.5275 12.9508 10.5251C14.7631 10.5251 17.2636 10.9418 18.9984 12.8996L19.013 24.9707C18.005 24.3117 16.0376 23.4249 12.7133 23.4249ZM19.9822 12.8996C21.717 10.9612 24.2175 10.5251 26.0299 10.5251C26.9964 10.5279 27.9599 10.6352 28.9035 10.8449V23.5945C28.034 23.4825 27.1585 23.4242 26.2818 23.42C22.9769 23.42 21.0047 24.3068 19.9822 24.9659V12.8996ZM31.026 26.2113C28.2095 25.0587 25.1449 24.6466 22.1241 25.0143C23.4652 24.5746 24.8707 24.3632 26.2818 24.3892C27.3023 24.3949 28.3209 24.4743 29.3299 24.6267C29.5945 24.6668 29.8416 24.4849 29.8817 24.2203C29.8857 24.1944 29.8875 24.1682 29.8872 24.1421V11.9934H31.0454L31.026 26.2113Z" fill="white"/>
</svg>
