<svg width="219" height="60" viewBox="0 0 219 60" fill="none" xmlns="http://www.w3.org/2000/svg">
<path d="M70.725 39.245H69.92C69.92 37.3083 70.4683 33.7733 71.565 28.64C72.6617 23.5067 73.2683 20.4383 73.385 19.435C73.525 18.4083 73.6067 17.6383 73.63 17.125C71.4367 17.1717 69.6867 17.51 68.38 18.14C67.7033 17.37 67.2833 16.2383 67.12 14.745C68.2633 14.3483 70.2233 14.15 73 14.15L84.025 14.5C84.5617 14.5 85.4133 14.4767 86.58 14.43C86.6733 15.1767 86.72 15.8067 86.72 16.32C86.72 17.4167 86.0317 17.965 84.655 17.965C84.235 17.965 83.57 17.895 82.66 17.755C81.7733 17.615 80.9917 17.5333 80.315 17.51C80.245 18.2567 79.6383 21.29 78.495 26.61C77.375 31.93 76.815 35.8383 76.815 38.335C75.7883 38.9417 73.7583 39.245 70.725 39.245ZM102.655 24.825C102.165 26.3417 101.745 28.15 101.395 30.25C101.045 32.3267 100.87 33.785 100.87 34.625C100.87 35.4417 100.999 35.85 101.255 35.85L103.005 35.36L103.635 37.11C102.889 37.6933 101.932 38.23 100.765 38.72C99.6221 39.1867 98.6071 39.42 97.7204 39.42C96.2037 39.42 95.2471 38.7667 94.8504 37.46C93.0071 38.7667 91.3737 39.42 89.9504 39.42C88.5504 39.42 87.4654 38.9067 86.6954 37.88C85.9254 36.8533 85.5404 35.3833 85.5404 33.47C85.5404 30.8333 86.2171 28.5117 87.5704 26.505C88.9237 24.4983 90.7087 23.495 92.9254 23.495C94.1387 23.495 95.3754 23.8333 96.6354 24.51C96.8221 24.09 96.9737 23.7867 97.0904 23.6C98.7704 23.6 100.625 24.0083 102.655 24.825ZM92.1204 33.05C92.1204 34.2167 92.2021 34.9517 92.3654 35.255C92.5287 35.5583 92.8321 35.71 93.2754 35.71C93.7187 35.71 94.1504 35.535 94.5704 35.185C94.6637 32.4783 95.1071 29.6433 95.9004 26.68C95.5504 26.47 95.1421 26.365 94.6754 26.365C94.2321 26.365 93.8237 26.6217 93.4504 27.135C93.1004 27.6483 92.8321 28.29 92.6454 29.06C92.2954 30.53 92.1204 31.86 92.1204 33.05ZM104.939 39.21H104.344C104.344 37.7633 104.671 35.57 105.324 32.63C106.001 29.69 106.339 27.9983 106.339 27.555C106.339 27.1117 106.234 26.68 106.024 26.26C105.814 25.84 105.604 25.525 105.394 25.315L105.079 25L105.149 24.475C106.526 24.0317 108.929 23.81 112.359 23.81C112.592 24.3467 112.756 24.9067 112.849 25.49C114.972 24.1833 116.757 23.53 118.204 23.53C119.184 23.53 119.954 23.8567 120.514 24.51C121.074 25.14 121.354 25.91 121.354 26.82C121.354 27.7067 121.097 29.1417 120.584 31.125C120.071 33.1083 119.814 34.4033 119.814 35.01C119.814 35.5933 119.896 35.885 120.059 35.885L121.914 35.395L122.544 37.145C121.797 37.705 120.817 38.23 119.604 38.72C118.414 39.1867 117.317 39.42 116.314 39.42C114.331 39.42 113.339 38.3933 113.339 36.34C113.339 35.4533 113.584 34.0067 114.074 32C114.564 29.9933 114.809 28.745 114.809 28.255C114.809 27.7417 114.646 27.485 114.319 27.485C113.899 27.485 113.339 27.7183 112.639 28.185C112.546 28.605 112.312 29.62 111.939 31.23C111.192 34.6133 110.819 37.0517 110.819 38.545C109.676 38.9883 107.716 39.21 104.939 39.21ZM128.262 23.6L135.437 23.775C136.253 23.775 137.012 23.74 137.712 23.67L138.027 24.86C134.643 28.78 132.228 31.7433 130.782 33.75C133.092 34.3567 134.55 34.6717 135.157 34.695C135.787 34.695 136.3 34.205 136.697 33.225L138.202 33.75C137.782 37.8567 136.44 39.91 134.177 39.91C133.383 39.91 132.298 39.525 130.922 38.755C129.568 37.985 128.693 37.53 128.297 37.39C127.177 38.58 126.337 39.175 125.777 39.175C125.24 39.175 124.645 38.86 123.992 38.23C123.338 37.5767 123.012 36.97 123.012 36.41C123.012 35.85 123.42 35.1617 124.237 34.345C125.077 33.5283 125.963 33.12 126.897 33.12C127.13 33.12 127.48 33.1433 127.947 33.19C129.323 31.9067 130.537 30.215 131.587 28.115C128.74 28.115 126.593 28.535 125.147 29.375C124.867 28.255 124.727 27.2867 124.727 26.47C124.727 25.6533 124.75 24.9417 124.797 24.335C125.17 23.845 126.325 23.6 128.262 23.6ZM156.01 24.825C155.52 26.3417 155.1 28.15 154.75 30.25C154.4 32.3267 154.225 33.785 154.225 34.625C154.225 35.4417 154.353 35.85 154.61 35.85L156.36 35.36L156.99 37.11C156.243 37.6933 155.287 38.23 154.12 38.72C152.977 39.1867 151.962 39.42 151.075 39.42C149.558 39.42 148.602 38.7667 148.205 37.46C146.362 38.7667 144.728 39.42 143.305 39.42C141.905 39.42 140.82 38.9067 140.05 37.88C139.28 36.8533 138.895 35.3833 138.895 33.47C138.895 30.8333 139.572 28.5117 140.925 26.505C142.278 24.4983 144.063 23.495 146.28 23.495C147.493 23.495 148.73 23.8333 149.99 24.51C150.177 24.09 150.328 23.7867 150.445 23.6C152.125 23.6 153.98 24.0083 156.01 24.825ZM145.475 33.05C145.475 34.2167 145.557 34.9517 145.72 35.255C145.883 35.5583 146.187 35.71 146.63 35.71C147.073 35.71 147.505 35.535 147.925 35.185C148.018 32.4783 148.462 29.6433 149.255 26.68C148.905 26.47 148.497 26.365 148.03 26.365C147.587 26.365 147.178 26.6217 146.805 27.135C146.455 27.6483 146.187 28.29 146 29.06C145.65 30.53 145.475 31.86 145.475 33.05ZM158.294 39.21H157.699C157.699 37.7633 158.025 35.57 158.679 32.63C159.355 29.69 159.694 27.9983 159.694 27.555C159.694 27.1117 159.589 26.68 159.379 26.26C159.169 25.84 158.959 25.525 158.749 25.315L158.434 25L158.504 24.475C159.88 24.0317 162.284 23.81 165.714 23.81C165.947 24.3467 166.11 24.9067 166.204 25.49C168.327 24.1833 170.112 23.53 171.559 23.53C172.539 23.53 173.309 23.8567 173.869 24.51C174.429 25.14 174.709 25.91 174.709 26.82C174.709 27.7067 174.452 29.1417 173.939 31.125C173.425 33.1083 173.169 34.4033 173.169 35.01C173.169 35.5933 173.25 35.885 173.414 35.885L175.269 35.395L175.899 37.145C175.152 37.705 174.172 38.23 172.959 38.72C171.769 39.1867 170.672 39.42 169.669 39.42C167.685 39.42 166.694 38.3933 166.694 36.34C166.694 35.4533 166.939 34.0067 167.429 32C167.919 29.9933 168.164 28.745 168.164 28.255C168.164 27.7417 168 27.485 167.674 27.485C167.254 27.485 166.694 27.7183 165.994 28.185C165.9 28.605 165.667 29.62 165.294 31.23C164.547 34.6133 164.174 37.0517 164.174 38.545C163.03 38.9883 161.07 39.21 158.294 39.21ZM185.269 25.875C185.269 26.9017 184.977 28.5 184.394 30.67C183.81 32.8167 183.519 34.2167 183.519 34.87C183.519 35.5233 183.647 35.85 183.904 35.85C184.16 35.85 184.627 35.7333 185.304 35.5L185.619 35.36L186.249 37.11C185.455 37.7167 184.464 38.2533 183.274 38.72C182.107 39.1867 181.045 39.42 180.089 39.42C179.132 39.42 178.374 39.1517 177.814 38.615C177.277 38.0783 177.009 37.3083 177.009 36.305C177.009 35.2783 177.289 33.7267 177.849 31.65C178.432 29.55 178.724 28.22 178.724 27.66C178.724 26.7967 178.42 25.98 177.814 25.21L177.534 24.825L177.639 24.23C178.852 23.8567 181.209 23.67 184.709 23.67C185.082 24.09 185.269 24.825 185.269 25.875ZM182.644 20.94C181.594 20.94 180.765 20.66 180.159 20.1C179.575 19.54 179.284 18.8283 179.284 17.965C179.284 17.0783 179.645 16.3433 180.369 15.76C181.115 15.1533 182.014 14.85 183.064 14.85C184.114 14.85 184.93 15.095 185.514 15.585C186.097 16.075 186.389 16.7633 186.389 17.65C186.389 18.5367 186.027 19.3067 185.304 19.96C184.604 20.6133 183.717 20.94 182.644 20.94ZM204.477 24.825C203.987 26.3417 203.567 28.15 203.217 30.25C202.867 32.3267 202.692 33.785 202.692 34.625C202.692 35.4417 202.82 35.85 203.077 35.85L204.827 35.36L205.457 37.11C204.71 37.6933 203.753 38.23 202.587 38.72C201.443 39.1867 200.428 39.42 199.542 39.42C198.025 39.42 197.068 38.7667 196.672 37.46C194.828 38.7667 193.195 39.42 191.772 39.42C190.372 39.42 189.287 38.9067 188.517 37.88C187.747 36.8533 187.362 35.3833 187.362 33.47C187.362 30.8333 188.038 28.5117 189.392 26.505C190.745 24.4983 192.53 23.495 194.747 23.495C195.96 23.495 197.197 23.8333 198.457 24.51C198.643 24.09 198.795 23.7867 198.912 23.6C200.592 23.6 202.447 24.0083 204.477 24.825ZM193.942 33.05C193.942 34.2167 194.023 34.9517 194.187 35.255C194.35 35.5583 194.653 35.71 195.097 35.71C195.54 35.71 195.972 35.535 196.392 35.185C196.485 32.4783 196.928 29.6433 197.722 26.68C197.372 26.47 196.963 26.365 196.497 26.365C196.053 26.365 195.645 26.6217 195.272 27.135C194.922 27.6483 194.653 28.29 194.467 29.06C194.117 30.53 193.942 31.86 193.942 33.05Z" fill="#0D0D0D"/>
<path d="M39.3488 39.0149L38.1518 43.4826C38.003 44.0378 37.4444 44.3785 36.8826 44.2565L36.0254 44.0704C35.4594 43.9475 34.8892 44.2591 34.6868 44.8018L34.4249 45.5042H39.9889L41.5684 39.6096L39.3488 39.0149Z" fill="url(#paint0_radial)"/>
<path d="M31.7386 36.2272L38.9761 40.4059L41.5685 39.6096L35.4329 31.5018L31.7386 36.2272Z" fill="url(#paint1_linear)"/>
<path d="M40.2477 25.0023C40.2477 22.6128 38.2779 20.6835 35.8735 20.7494C33.5562 20.813 31.7386 22.7726 31.7386 25.0909V36.2273H32.43C35.3598 36.2273 37.735 33.8522 37.735 30.9224V29.7281C37.735 29.2445 37.9792 28.7967 38.3794 28.5252C39.5068 27.76 40.2477 26.4676 40.2477 25.0023Z" fill="url(#paint2_radial)"/>
<path d="M13.1324 44.8612L11.7241 43.9294L15.3646 33.4479L19.2857 35.7118L14.5412 43.9294L13.1324 44.8612Z" fill="url(#paint3_linear)"/>
<path d="M13.632 45.5042H7.2218L7.87606 44.7935C8.38301 44.2427 9.0975 43.9294 9.8461 43.9294H14.5412L13.632 45.5042Z" fill="url(#paint4_radial)"/>
<path d="M19.2857 35.7118C16.4254 35.7118 14.1066 33.393 14.1066 30.5327V25.6081C14.1066 24.178 15.2659 23.0185 16.6962 23.0185C18.1263 23.0185 19.2858 24.1779 19.2858 25.6081V35.7118H19.2857Z" fill="url(#paint5_radial)"/>
<path d="M60 43.905L55.3846 26.6799C54.3406 22.7839 51.2974 19.7408 47.4014 18.6968L44.1574 17.8276L43.0807 21.8459L47.5895 23.054C49.2853 23.5084 50.6457 24.7737 51.2216 26.4323L56.7859 42.4583C57.1991 43.6483 58.4612 44.3173 59.6781 43.9913L60 43.905Z" fill="url(#paint6_radial)"/>
<path d="M12.3539 10.9102H9.09644C7.70847 10.9102 6.47577 11.7185 5.89898 12.9348L5.47745 17.7833L3.93878 19.7968C4.27781 20.3 4.77913 20.692 5.3857 20.8874L9.47062 22.203C10.0218 22.3806 10.5751 22.4631 11.1155 22.4617V22.4618H13.6874L12.3539 10.9102Z" fill="url(#paint7_radial)"/>
<path d="M9.18221 12.9348H5.89885C5.79725 13.149 5.71346 13.3744 5.65557 13.6118L5.24213 15.3043C5.15108 15.6771 4.88249 15.9812 4.52377 16.1176L4.22717 16.2304C4.05807 16.2948 3.91018 16.3951 3.79065 16.5206L8.28444 17.0863L9.18221 12.9348Z" fill="url(#paint8_radial)"/>
<path d="M3.79078 16.5207C3.58558 16.7363 3.46429 17.0265 3.46429 17.337V18.2502C3.46429 18.816 3.63773 19.3501 3.93879 19.7969H7.19624L7.7189 16.5207H3.79078Z" fill="url(#paint9_radial)"/>
<path d="M41.2956 30.4548H23.6449C18.1208 30.4548 13.6428 20.4526 13.6428 20.4526V16.5207H29.3324C34.1321 16.5207 38.9233 16.9219 43.6561 17.7198C46.4002 18.1824 48.4091 20.5585 48.4091 23.3413C48.4091 27.27 45.2243 30.4548 41.2956 30.4548Z" fill="url(#paint10_radial)"/>
<path d="M17.7146 20.4526V16.5207H13.6428V20.4526C13.6428 25.9767 18.121 30.4548 23.6449 30.4548H27.7167C22.1928 30.4548 17.7146 25.9767 17.7146 20.4526Z" fill="url(#paint11_radial)"/>
<path d="M13.6428 20.4526C13.6428 21.3855 13.7705 22.2886 14.0094 23.1452C17.2714 23.8836 20.4585 21.4058 20.4585 17.9789C20.4585 17.4769 20.3992 16.9885 20.2875 16.5207H13.6429V20.4526H13.6428Z" fill="url(#paint12_radial)"/>
<path d="M46.1894 39.0149L44.9924 43.4826C44.8435 44.0378 44.285 44.3785 43.7232 44.2565L42.866 44.0704C42.3 43.9475 41.7297 44.2591 41.5274 44.8018L41.2654 45.5042H46.8295L48.409 39.6096L46.1894 39.0149Z" fill="url(#paint13_radial)"/>
<path d="M38.5792 36.2272L45.8167 40.4059L48.4091 39.6096L42.2735 31.5018L38.5792 36.2272Z" fill="url(#paint14_linear)"/>
<path d="M47.0883 25.0023C47.0883 22.6128 45.1185 20.6835 42.7141 20.7494C40.3967 20.813 38.5792 22.7726 38.5792 25.0909V36.2273H39.2706C42.2004 36.2273 44.5755 33.8522 44.5755 30.9224V29.7281C44.5755 29.2445 44.8197 28.7967 45.2199 28.5252C46.3474 27.76 47.0883 26.4676 47.0883 25.0023Z" fill="url(#paint15_radial)"/>
<path d="M39.8822 25.0908C39.8822 22.9523 41.4288 21.1191 43.4876 20.7976C43.2363 20.7588 42.9778 20.7421 42.7141 20.7493C40.3967 20.8129 38.5792 22.7725 38.5792 25.0908V36.2272H39.2706C39.4774 36.2272 39.6815 36.2154 39.8822 36.1923V25.0908Z" fill="url(#paint16_radial)"/>
<path d="M19.9729 44.8612L18.5647 43.9294L22.2051 33.4479L26.1262 35.7118L21.3818 43.9294L19.9729 44.8612Z" fill="url(#paint17_linear)"/>
<path d="M19.8676 43.9294L23.2904 34.0745L22.2051 33.4479L18.5647 43.9294L19.9729 44.8612L20.6245 44.4302L19.8676 43.9294Z" fill="url(#paint18_linear)"/>
<path d="M20.4725 45.5042H14.0624L14.7166 44.7935C15.2236 44.2427 15.9381 43.9294 16.6867 43.9294H21.3818L20.4725 45.5042Z" fill="url(#paint19_radial)"/>
<path d="M8.90119 18.4277V16.6861L9.99443 16.3044C10.6903 16.0615 11.1563 15.4051 11.1563 14.668C11.1563 13.7108 10.3803 12.9348 9.42314 12.9348H9.15631C9.05471 13.149 8.97092 13.3744 8.91302 13.6118L8.49959 15.3043C8.40853 15.6771 8.13994 15.9812 7.78123 16.1176L7.48463 16.2304C7.02525 16.4052 6.72162 16.8454 6.72162 17.3369V18.2501C6.72162 18.8158 6.89506 19.35 7.19611 19.7968H7.53209C8.28818 19.7969 8.90119 19.1839 8.90119 18.4277Z" fill="url(#paint20_radial)"/>
<path d="M13.3899 10.9102H12.3539C10.966 10.9102 9.73328 11.7185 9.15648 12.9348H9.42332C10.3805 12.9348 11.1565 13.7108 11.1565 14.668C11.1565 15.405 10.6905 16.0615 9.9946 16.3044L8.90136 16.6861V18.4277C8.90136 19.1839 8.28835 19.7969 7.53214 19.7969H7.19617C7.53519 20.3001 8.03652 20.6921 8.64308 20.8875L12.728 22.2031C16.1455 23.3038 19.6442 20.7551 19.6442 17.1645C19.6441 13.7103 16.844 10.9102 13.3899 10.9102Z" fill="url(#paint21_radial)"/>
<path d="M14.5605 18.272C14.2106 18.272 13.9269 17.9883 13.9269 17.6383V15.9416C13.9269 14.8207 14.8356 13.912 15.9564 13.912C16.7452 13.912 17.3847 14.5515 17.3847 15.3403V15.4476C17.3848 17.0075 16.1204 18.272 14.5605 18.272Z" fill="url(#paint22_radial)"/>
<path d="M14.3461 17.5341C14.1147 17.5341 13.9271 17.3465 13.9271 17.115V15.9926C13.9271 15.2511 14.5281 14.65 15.2697 14.65C15.7915 14.65 16.2144 15.073 16.2144 15.5947V15.6657C16.2144 16.6976 15.378 17.5341 14.3461 17.5341Z" fill="url(#paint23_radial)"/>
<path d="M26.1262 35.7118C23.2659 35.7118 20.9471 33.393 20.9471 30.5327V25.6081C20.9471 24.178 22.1065 23.0185 23.5368 23.0185C24.9669 23.0185 26.1264 24.1779 26.1264 25.6081V35.7118H26.1262Z" fill="url(#paint24_radial)"/>
<path d="M22.2502 30.5326V25.608C22.2502 24.4029 23.0734 23.39 24.1882 23.1011C23.9801 23.0472 23.7618 23.0185 23.5368 23.0185C22.1066 23.0185 20.9471 24.1779 20.9471 25.6081V30.5327C20.9471 33.393 23.2659 35.7118 26.1262 35.7118V35.5464C23.8966 34.9686 22.2502 32.9429 22.2502 30.5326Z" fill="url(#paint25_radial)"/>
<path d="M29.2652 49.0897C45.428 49.0897 58.5305 47.4845 58.5305 45.5042H0C0 47.4845 13.1025 49.0897 29.2652 49.0897Z" fill="url(#paint26_radial)"/>
<defs>
<radialGradient id="paint0_radial" cx="0" cy="0" r="1" gradientUnits="userSpaceOnUse" gradientTransform="translate(34.0121 43.0679) rotate(54.6887) scale(6.66728 9.17937)">
<stop stop-color="#F4D8BC"/>
<stop offset="0.106" stop-color="#F2CFAB"/>
<stop offset="0.3888" stop-color="#ECB883"/>
<stop offset="0.6131" stop-color="#E8AA6A"/>
<stop offset="0.7494" stop-color="#E7A561"/>
</radialGradient>
<linearGradient id="paint1_linear" x1="36.5708" y1="39.1197" x2="37.0382" y2="32.3289" gradientUnits="userSpaceOnUse">
<stop offset="0.445" stop-color="#934D36"/>
<stop offset="0.6256" stop-color="#8A4832"/>
<stop offset="0.8207" stop-color="#7A402B"/>
</linearGradient>
<radialGradient id="paint2_radial" cx="0" cy="0" r="1" gradientUnits="userSpaceOnUse" gradientTransform="translate(33.932 28.2203) rotate(-45.3644) scale(6.22753 6.56643)">
<stop stop-color="#7A402B"/>
<stop offset="1" stop-color="#934D36"/>
</radialGradient>
<linearGradient id="paint3_linear" x1="15.7531" y1="40.024" x2="12.0542" y2="36.9921" gradientUnits="userSpaceOnUse">
<stop offset="0.3106" stop-color="#934D36"/>
<stop offset="0.5356" stop-color="#8E4B34"/>
<stop offset="0.787" stop-color="#81442E"/>
<stop offset="0.8801" stop-color="#7A402B"/>
</linearGradient>
<radialGradient id="paint4_radial" cx="0" cy="0" r="1" gradientUnits="userSpaceOnUse" gradientTransform="translate(8.37272 43.7232) rotate(54.6886) scale(6.02347 8.29299)">
<stop stop-color="#F4D8BC"/>
<stop offset="0.106" stop-color="#F2CFAB"/>
<stop offset="0.3888" stop-color="#ECB883"/>
<stop offset="0.6131" stop-color="#E8AA6A"/>
<stop offset="0.7494" stop-color="#E7A561"/>
</radialGradient>
<radialGradient id="paint5_radial" cx="0" cy="0" r="1" gradientUnits="userSpaceOnUse" gradientTransform="translate(17.478 28.2282) rotate(-90) scale(8.72952 6.73046)">
<stop stop-color="#7A402B"/>
<stop offset="0.148" stop-color="#80432E"/>
<stop offset="0.6051" stop-color="#8E4A34"/>
<stop offset="1" stop-color="#934D36"/>
</radialGradient>
<radialGradient id="paint6_radial" cx="0" cy="0" r="1" gradientUnits="userSpaceOnUse" gradientTransform="translate(43.8437 23.7301) scale(30.427 19.6559)">
<stop offset="0.1486" stop-color="#934D36"/>
<stop offset="0.1684" stop-color="#975038"/>
<stop offset="0.2743" stop-color="#A95B43"/>
<stop offset="0.403" stop-color="#B5634A"/>
<stop offset="0.5778" stop-color="#BC684E"/>
<stop offset="1" stop-color="#BE694F"/>
</radialGradient>
<radialGradient id="paint7_radial" cx="0" cy="0" r="1" gradientUnits="userSpaceOnUse" gradientTransform="translate(-0.136882 9.89329) scale(10.1627 7.95742)">
<stop offset="0.1096" stop-color="#F9EFDA"/>
<stop offset="0.1675" stop-color="#F6E9D5"/>
<stop offset="0.6064" stop-color="#E2BCAF"/>
<stop offset="0.6419" stop-color="#E0B7AA"/>
<stop offset="0.8709" stop-color="#D49B8B"/>
<stop offset="1" stop-color="#D09080"/>
</radialGradient>
<radialGradient id="paint8_radial" cx="0" cy="0" r="1" gradientUnits="userSpaceOnUse" gradientTransform="translate(4.16965 13.6469) rotate(54.6888) scale(10.4348 14.3663)">
<stop stop-color="#FFFBE4"/>
<stop offset="0.0869" stop-color="#FBEED0"/>
<stop offset="0.3604" stop-color="#F0C697"/>
<stop offset="0.4918" stop-color="#ECB780"/>
</radialGradient>
<radialGradient id="paint9_radial" cx="0" cy="0" r="1" gradientUnits="userSpaceOnUse" gradientTransform="translate(3.31464 16.2559) rotate(54.6888) scale(10.0016 13.77)">
<stop stop-color="#FFF9D0"/>
<stop offset="0.1078" stop-color="#FAE6B7"/>
<stop offset="0.2941" stop-color="#F2CA92"/>
<stop offset="0.4674" stop-color="#ECB677"/>
<stop offset="0.6209" stop-color="#E8A967"/>
<stop offset="0.7389" stop-color="#E7A561"/>
</radialGradient>
<radialGradient id="paint10_radial" cx="0" cy="0" r="1" gradientUnits="userSpaceOnUse" gradientTransform="translate(25.5376 15.9148) scale(27.8921 18.0183)">
<stop stop-color="#D09080"/>
<stop offset="0.0492" stop-color="#CE8C7B"/>
<stop offset="0.242" stop-color="#C8816B"/>
<stop offset="0.396" stop-color="#C67D66"/>
<stop offset="0.5543" stop-color="#BF765F"/>
<stop offset="0.7875" stop-color="#AB644D"/>
<stop offset="1" stop-color="#934D36"/>
</radialGradient>
<radialGradient id="paint11_radial" cx="0" cy="0" r="1" gradientUnits="userSpaceOnUse" gradientTransform="translate(10.4292 20.9246) rotate(45) scale(15.6207 16.151)">
<stop stop-color="#FFF9D0"/>
<stop offset="0.3644" stop-color="#E0B39B"/>
<stop offset="0.5388" stop-color="#D09080"/>
<stop offset="0.6644" stop-color="#C38270"/>
<stop offset="0.9082" stop-color="#A15D47"/>
<stop offset="1" stop-color="#934D36"/>
</radialGradient>
<radialGradient id="paint12_radial" cx="0" cy="0" r="1" gradientUnits="userSpaceOnUse" gradientTransform="translate(15.7449 21.7526) scale(7.26363 5.67289)">
<stop stop-color="#934D36"/>
<stop offset="0.2411" stop-color="#A35C45"/>
<stop offset="0.7157" stop-color="#BC745D"/>
<stop offset="1" stop-color="#C67D66"/>
</radialGradient>
<radialGradient id="paint13_radial" cx="0" cy="0" r="1" gradientUnits="userSpaceOnUse" gradientTransform="translate(40.8554 43.0658) rotate(54.6887) scale(6.66728 9.17937)">
<stop stop-color="#FFFBE4"/>
<stop offset="0.1495" stop-color="#FAE9CA"/>
<stop offset="0.4131" stop-color="#F2CEA2"/>
<stop offset="0.6223" stop-color="#EEBD89"/>
<stop offset="0.7494" stop-color="#ECB780"/>
</radialGradient>
<linearGradient id="paint14_linear" x1="43.4115" y1="39.1197" x2="43.8787" y2="32.3289" gradientUnits="userSpaceOnUse">
<stop offset="0.445" stop-color="#AA593D"/>
<stop offset="0.637" stop-color="#A1543A"/>
<stop offset="0.8207" stop-color="#934D36"/>
</linearGradient>
<radialGradient id="paint15_radial" cx="0" cy="0" r="1" gradientUnits="userSpaceOnUse" gradientTransform="translate(38.5812 23.0646) rotate(-45.3644) scale(7.89103 8.32045)">
<stop stop-color="#D09080"/>
<stop offset="0.4754" stop-color="#C67D66"/>
<stop offset="0.5354" stop-color="#C37961"/>
<stop offset="1" stop-color="#AA593D"/>
</radialGradient>
<radialGradient id="paint16_radial" cx="0" cy="0" r="1" gradientUnits="userSpaceOnUse" gradientTransform="translate(36.9999 24.6866) scale(12.3973 9.55829)">
<stop stop-color="#FBF6EC"/>
<stop offset="0.1648" stop-color="#E5C4B5"/>
<stop offset="0.3513" stop-color="#CF917C"/>
<stop offset="0.4413" stop-color="#C67D66"/>
<stop offset="0.5852" stop-color="#C0765E"/>
<stop offset="0.8136" stop-color="#B16147"/>
<stop offset="0.8924" stop-color="#AA593D"/>
</radialGradient>
<linearGradient id="paint17_linear" x1="22.5936" y1="40.024" x2="18.8948" y2="36.9921" gradientUnits="userSpaceOnUse">
<stop offset="0.3301" stop-color="#AA593D"/>
<stop offset="0.5575" stop-color="#A5573C"/>
<stop offset="0.8117" stop-color="#985038"/>
<stop offset="0.8801" stop-color="#934D36"/>
</linearGradient>
<linearGradient id="paint18_linear" x1="19.4538" y1="44.6245" x2="23.0285" y2="33.3335" gradientUnits="userSpaceOnUse">
<stop stop-color="#F4E2C1"/>
<stop offset="0.0529" stop-color="#E1BE9F"/>
<stop offset="0.1109" stop-color="#D09F81"/>
<stop offset="0.1744" stop-color="#C28568"/>
<stop offset="0.2445" stop-color="#B77255"/>
<stop offset="0.3245" stop-color="#B06447"/>
<stop offset="0.4231" stop-color="#AB5B3F"/>
<stop offset="0.5953" stop-color="#AA593D"/>
<stop offset="0.7871" stop-color="#9C5239"/>
<stop offset="0.8801" stop-color="#934D36"/>
</linearGradient>
<radialGradient id="paint19_radial" cx="0" cy="0" r="1" gradientUnits="userSpaceOnUse" gradientTransform="translate(15.2162 43.721) rotate(54.6886) scale(6.02347 8.29299)">
<stop stop-color="#FFFBE4"/>
<stop offset="0.1495" stop-color="#FAE9CA"/>
<stop offset="0.4131" stop-color="#F2CEA2"/>
<stop offset="0.6223" stop-color="#EEBD89"/>
<stop offset="0.7494" stop-color="#ECB780"/>
</radialGradient>
<radialGradient id="paint20_radial" cx="0" cy="0" r="1" gradientUnits="userSpaceOnUse" gradientTransform="translate(11.06 16.1208) rotate(5.7961) scale(6.13229 8.43732)">
<stop stop-color="#ECB780"/>
<stop offset="0.2481" stop-color="#ECB57D"/>
<stop offset="0.4471" stop-color="#EBB073"/>
<stop offset="0.6291" stop-color="#E9A662"/>
<stop offset="0.8008" stop-color="#E6994A"/>
<stop offset="0.964" stop-color="#E3882C"/>
<stop offset="1" stop-color="#E28424"/>
</radialGradient>
<radialGradient id="paint21_radial" cx="0" cy="0" r="1" gradientUnits="userSpaceOnUse" gradientTransform="translate(16.4485 18.8603) scale(12.772 9.97496)">
<stop stop-color="#C67D66"/>
<stop offset="0.5149" stop-color="#C47B64"/>
<stop offset="0.7003" stop-color="#BD755E"/>
<stop offset="0.8325" stop-color="#B26A53"/>
<stop offset="0.9387" stop-color="#A15A43"/>
<stop offset="1" stop-color="#934D36"/>
</radialGradient>
<radialGradient id="paint22_radial" cx="0" cy="0" r="1" gradientUnits="userSpaceOnUse" gradientTransform="translate(14.3562 14.2986) rotate(54.6888) scale(6.23653 8.58631)">
<stop stop-color="#FFFBE4"/>
<stop offset="0.0869" stop-color="#FBEED0"/>
<stop offset="0.3604" stop-color="#F0C697"/>
<stop offset="0.4918" stop-color="#ECB780"/>
<stop offset="0.9122" stop-color="#E28424"/>
</radialGradient>
<radialGradient id="paint23_radial" cx="0" cy="0" r="1" gradientUnits="userSpaceOnUse" gradientTransform="translate(16.0592 17.4614) rotate(-135) scale(4.12496 5.67692)">
<stop offset="0.3046" stop-color="#ECB780"/>
<stop offset="0.9122" stop-color="#E28424"/>
</radialGradient>
<radialGradient id="paint24_radial" cx="0" cy="0" r="1" gradientUnits="userSpaceOnUse" gradientTransform="translate(19.4219 24.2333) rotate(-90) scale(8.72952 6.73047)">
<stop stop-color="#D09080"/>
<stop offset="0.2075" stop-color="#CB8774"/>
<stop offset="0.5082" stop-color="#C67D66"/>
<stop offset="1" stop-color="#AA593D"/>
</radialGradient>
<radialGradient id="paint25_radial" cx="0" cy="0" r="1" gradientUnits="userSpaceOnUse" gradientTransform="translate(20.4189 25.939) scale(9.38051 7.23236)">
<stop stop-color="#FBF6EC"/>
<stop offset="0.0803" stop-color="#F0DDD0"/>
<stop offset="0.3085" stop-color="#D29884"/>
<stop offset="0.4138" stop-color="#C67D66"/>
<stop offset="0.6148" stop-color="#BC7058"/>
<stop offset="0.8924" stop-color="#AA593D"/>
</radialGradient>
<radialGradient id="paint26_radial" cx="0" cy="0" r="1" gradientUnits="userSpaceOnUse" gradientTransform="translate(29.7725 45.5638) scale(28.0823 3.37832)">
<stop stop-color="#E2BCAF"/>
<stop offset="0.2829" stop-color="#EACDC3"/>
<stop offset="0.5032" stop-color="#F1DDD5"/>
<stop offset="0.8982" stop-color="white"/>
</radialGradient>
</defs>
</svg>
